<svg xmlns="http://www.w3.org/2000/svg" xmlns:xlink="http://www.w3.org/1999/xlink" width="500" zoomAndPan="magnify" viewBox="0 0 375 374.999991" height="500" preserveAspectRatio="xMidYMid meet" version="1.0"><defs><g/><clipPath id="bc528bae61"><path d="M 46.917969 170.769531 L 85.480469 170.769531 L 85.480469 209.328125 L 46.917969 209.328125 Z M 46.917969 170.769531 " clip-rule="nonzero"/></clipPath><clipPath id="753fdcece3"><path d="M 35 158 L 98 158 L 98 221.035156 L 35 221.035156 Z M 35 158 " clip-rule="nonzero"/></clipPath><clipPath id="687ea4bc6a"><path d="M 65 217 L 67 217 L 67 221.035156 L 65 221.035156 Z M 65 217 " clip-rule="nonzero"/></clipPath></defs><rect x="-37.5" width="450" fill="#ffffff" y="-37.499999" height="449.999989" fill-opacity="1"/><rect x="-37.5" width="450" fill="#ffffff" y="-37.499999" height="449.999989" fill-opacity="1"/><rect x="-37.5" width="450" fill="#ffffff" y="-37.499999" height="449.999989" fill-opacity="1"/><g clip-path="url(#bc528bae61)"><path fill="#24c108" d="M 66.199219 170.769531 C 65.566406 170.769531 64.9375 170.796875 64.308594 170.859375 C 63.679688 170.921875 63.054688 171.015625 62.4375 171.136719 C 61.816406 171.261719 61.207031 171.414062 60.601562 171.597656 C 59.996094 171.78125 59.402344 171.992188 58.820312 172.234375 C 58.238281 172.476562 57.667969 172.746094 57.109375 173.042969 C 56.554688 173.34375 56.011719 173.667969 55.488281 174.015625 C 54.960938 174.367188 54.457031 174.742188 53.96875 175.144531 C 53.480469 175.542969 53.011719 175.96875 52.566406 176.414062 C 52.117188 176.859375 51.695312 177.328125 51.292969 177.816406 C 50.894531 178.304688 50.519531 178.8125 50.167969 179.335938 C 49.816406 179.863281 49.492188 180.402344 49.195312 180.960938 C 48.898438 181.515625 48.628906 182.085938 48.386719 182.667969 C 48.144531 183.253906 47.933594 183.847656 47.75 184.449219 C 47.566406 185.054688 47.414062 185.667969 47.289062 186.285156 C 47.164062 186.90625 47.074219 187.53125 47.011719 188.15625 C 46.949219 188.785156 46.917969 189.417969 46.917969 190.046875 C 46.917969 190.679688 46.949219 191.308594 47.011719 191.9375 C 47.074219 192.566406 47.164062 193.191406 47.289062 193.808594 C 47.414062 194.429688 47.566406 195.039062 47.75 195.644531 C 47.933594 196.25 48.144531 196.84375 48.386719 197.425781 C 48.628906 198.007812 48.898438 198.578125 49.195312 199.136719 C 49.492188 199.691406 49.816406 200.234375 50.167969 200.757812 C 50.519531 201.285156 50.894531 201.789062 51.292969 202.277344 C 51.695312 202.765625 52.117188 203.234375 52.566406 203.679688 C 53.011719 204.128906 53.480469 204.550781 53.96875 204.953125 C 54.457031 205.351562 54.960938 205.726562 55.488281 206.078125 C 56.011719 206.429688 56.554688 206.753906 57.109375 207.050781 C 57.667969 207.347656 58.238281 207.617188 58.820312 207.859375 C 59.402344 208.101562 59.996094 208.316406 60.601562 208.496094 C 61.207031 208.679688 61.816406 208.835938 62.4375 208.957031 C 63.054688 209.082031 63.679688 209.171875 64.308594 209.234375 C 64.9375 209.296875 65.566406 209.328125 66.199219 209.328125 C 66.832031 209.328125 67.460938 209.296875 68.089844 209.234375 C 68.71875 209.171875 69.339844 209.082031 69.960938 208.957031 C 70.578125 208.835938 71.191406 208.679688 71.796875 208.496094 C 72.398438 208.316406 72.992188 208.101562 73.578125 207.859375 C 74.160156 207.617188 74.730469 207.347656 75.289062 207.050781 C 75.84375 206.753906 76.386719 206.429688 76.910156 206.078125 C 77.433594 205.726562 77.941406 205.351562 78.429688 204.953125 C 78.917969 204.550781 79.386719 204.128906 79.832031 203.679688 C 80.277344 203.234375 80.703125 202.765625 81.101562 202.277344 C 81.503906 201.789062 81.878906 201.285156 82.230469 200.757812 C 82.582031 200.234375 82.90625 199.691406 83.203125 199.136719 C 83.5 198.578125 83.769531 198.007812 84.011719 197.425781 C 84.253906 196.84375 84.464844 196.25 84.648438 195.644531 C 84.832031 195.039062 84.984375 194.429688 85.109375 193.808594 C 85.230469 193.191406 85.324219 192.566406 85.386719 191.9375 C 85.449219 191.308594 85.480469 190.679688 85.480469 190.046875 C 85.480469 189.417969 85.449219 188.785156 85.386719 188.15625 C 85.324219 187.53125 85.230469 186.90625 85.109375 186.285156 C 84.984375 185.667969 84.832031 185.054688 84.648438 184.449219 C 84.464844 183.847656 84.253906 183.253906 84.011719 182.667969 C 83.769531 182.085938 83.5 181.515625 83.203125 180.960938 C 82.90625 180.402344 82.582031 179.863281 82.230469 179.335938 C 81.878906 178.8125 81.503906 178.304688 81.101562 177.816406 C 80.703125 177.328125 80.277344 176.859375 79.832031 176.414062 C 79.386719 175.96875 78.917969 175.542969 78.429688 175.144531 C 77.941406 174.742188 77.433594 174.367188 76.910156 174.015625 C 76.386719 173.667969 75.84375 173.34375 75.289062 173.042969 C 74.730469 172.746094 74.160156 172.476562 73.578125 172.234375 C 72.992188 171.992188 72.398438 171.78125 71.796875 171.597656 C 71.191406 171.414062 70.578125 171.261719 69.960938 171.136719 C 69.339844 171.015625 68.71875 170.921875 68.089844 170.859375 C 67.460938 170.796875 66.832031 170.769531 66.199219 170.769531 Z M 68.953125 196.773438 C 68.78125 196.800781 68.609375 196.789062 68.445312 196.738281 C 68.277344 196.691406 68.128906 196.609375 67.996094 196.496094 C 67.863281 196.382812 67.761719 196.246094 67.6875 196.089844 C 67.613281 195.929688 67.578125 195.765625 67.574219 195.589844 L 67.574219 192.421875 C 67.574219 192.148438 67.660156 191.902344 67.832031 191.683594 C 68.003906 191.46875 68.222656 191.328125 68.492188 191.265625 C 69 191.152344 69.472656 190.945312 69.902344 190.652344 C 70.335938 190.355469 70.699219 189.992188 70.992188 189.558594 C 71.285156 189.128906 71.492188 188.65625 71.605469 188.144531 C 71.722656 187.636719 71.738281 187.121094 71.660156 186.605469 C 71.578125 186.089844 71.40625 185.605469 71.144531 185.152344 C 70.878906 184.703125 70.542969 184.316406 70.132812 183.992188 C 69.71875 183.667969 69.265625 183.429688 68.761719 183.28125 C 68.261719 183.128906 67.75 183.078125 67.230469 183.121094 C 66.710938 183.164062 66.214844 183.300781 65.746094 183.535156 C 65.277344 183.765625 64.867188 184.074219 64.515625 184.460938 C 64.164062 184.847656 63.894531 185.285156 63.710938 185.777344 C 63.527344 186.265625 63.4375 186.769531 63.445312 187.292969 L 63.445312 200.375 C 63.445312 200.652344 63.390625 200.914062 63.285156 201.167969 C 63.183594 201.421875 63.03125 201.644531 62.839844 201.835938 C 62.644531 202.03125 62.421875 202.179688 62.167969 202.285156 C 61.917969 202.390625 61.652344 202.441406 61.378906 202.441406 L 60 202.441406 C 59.726562 202.441406 59.464844 202.390625 59.210938 202.285156 C 58.957031 202.179688 58.734375 202.03125 58.539062 201.835938 C 58.347656 201.644531 58.199219 201.421875 58.09375 201.167969 C 57.988281 200.914062 57.9375 200.652344 57.9375 200.375 L 57.9375 187.542969 C 57.929688 186.921875 57.980469 186.304688 58.089844 185.691406 C 58.199219 185.082031 58.367188 184.484375 58.589844 183.90625 C 58.8125 183.328125 59.089844 182.773438 59.417969 182.246094 C 59.746094 181.71875 60.121094 181.226562 60.542969 180.773438 C 60.964844 180.316406 61.429688 179.90625 61.929688 179.539062 C 62.429688 179.167969 62.960938 178.851562 63.519531 178.585938 C 64.082031 178.316406 64.660156 178.105469 65.261719 177.949219 C 65.863281 177.792969 66.472656 177.695312 67.09375 177.652344 C 67.691406 177.644531 68.285156 177.695312 68.875 177.796875 C 69.46875 177.898438 70.042969 178.054688 70.601562 178.265625 C 71.164062 178.476562 71.699219 178.738281 72.210938 179.046875 C 72.722656 179.359375 73.203125 179.714844 73.648438 180.113281 C 74.09375 180.511719 74.5 180.949219 74.867188 181.425781 C 75.230469 181.898438 75.546875 182.40625 75.816406 182.9375 C 76.089844 183.472656 76.308594 184.027344 76.472656 184.601562 C 76.640625 185.179688 76.753906 185.765625 76.8125 186.359375 C 76.871094 186.957031 76.871094 187.550781 76.820312 188.148438 C 76.765625 188.746094 76.65625 189.332031 76.496094 189.90625 C 76.332031 190.484375 76.117188 191.039062 75.851562 191.578125 C 75.585938 192.113281 75.273438 192.621094 74.914062 193.097656 C 74.550781 193.578125 74.148438 194.019531 73.707031 194.421875 C 73.265625 194.824219 72.789062 195.183594 72.277344 195.496094 C 71.769531 195.8125 71.234375 196.078125 70.675781 196.292969 C 70.117188 196.507812 69.542969 196.667969 68.953125 196.773438 Z M 68.953125 196.773438 " fill-opacity="1" fill-rule="nonzero"/></g><path fill="#24c108" d="M 81.457031 202.183594 L 82.3125 215.84375 C 82.34375 216.359375 82.816406 216.734375 83.320312 216.640625 L 96.652344 214.15625 C 97.378906 214.019531 97.605469 213.082031 97.023438 212.625 L 82.835938 201.449219 C 82.253906 200.992188 81.410156 201.441406 81.457031 202.183594 Z M 81.457031 202.183594 " fill-opacity="1" fill-rule="nonzero"/><g clip-path="url(#753fdcece3)"><path fill="#24c108" d="M 45.667969 213.09375 C 51.34375 218.179688 58.246094 220.75 65.152344 221.003906 L 65.203125 217.378906 C 59.789062 217.160156 54.390625 215.347656 49.746094 211.796875 C 37.203125 202.199219 35.125 183.832031 45.546875 171.601562 C 54.480469 161.117188 70.066406 158.949219 81.46875 166.601562 C 94.78125 175.53125 97.703125 193.785156 88.199219 206.445312 L 91.054688 208.632812 C 101.402344 194.84375 98.722656 175.191406 85.0625 164.742188 C 70.886719 153.898438 50.460938 157.226562 40.457031 172.402344 C 31.976562 185.269531 34.222656 202.828125 45.667969 213.09375 Z M 45.667969 213.09375 " fill-opacity="1" fill-rule="nonzero"/></g><g clip-path="url(#687ea4bc6a)"><path fill="#24c108" d="M 66.972656 219.21875 C 66.988281 218.21875 66.199219 217.394531 65.210938 217.378906 L 65.15625 221.003906 C 66.144531 221.019531 66.957031 220.222656 66.972656 219.21875 Z M 66.972656 219.21875 " fill-opacity="1" fill-rule="nonzero"/></g><g fill="#24c108" fill-opacity="1"><g transform="translate(108.357842, 201.828906)"><g><path d="M 16.0625 -32.214844 L 3.683594 -32.214844 L 3.683594 0 L 10.632812 0 L 10.632812 -10.035156 L 16.0625 -10.035156 C 22.550781 -10.035156 27.429688 -14.773438 27.429688 -21.125 C 27.429688 -27.476562 22.503906 -32.214844 16.0625 -32.214844 Z M 15.738281 -16.476562 L 10.632812 -16.476562 L 10.632812 -25.726562 L 15.738281 -25.726562 C 18.5 -25.726562 20.386719 -23.792969 20.386719 -21.125 C 20.386719 -18.457031 18.5 -16.476562 15.738281 -16.476562 Z M 15.738281 -16.476562 "/></g></g></g><g fill="#24c108" fill-opacity="1"><g transform="translate(135.925366, 201.828906)"><g><path d="M 15.003906 0.738281 C 22.691406 0.738281 28.441406 -4.925781 28.441406 -12.425781 C 28.441406 -19.929688 22.691406 -25.542969 15.003906 -25.542969 C 7.316406 -25.542969 1.566406 -19.929688 1.566406 -12.425781 C 1.566406 -4.925781 7.316406 0.738281 15.003906 0.738281 Z M 15.003906 -5.613281 C 11.136719 -5.613281 8.375 -8.375 8.375 -12.425781 C 8.375 -16.429688 11.136719 -19.238281 15.003906 -19.238281 C 18.871094 -19.238281 21.632812 -16.429688 21.632812 -12.425781 C 21.632812 -8.375 18.871094 -5.613281 15.003906 -5.613281 Z M 15.003906 -5.613281 "/></g></g></g><g fill="#24c108" fill-opacity="1"><g transform="translate(164.919599, 201.828906)"><g><path d="M 3.222656 -28.167969 L 9.894531 -28.167969 L 9.894531 -34.378906 L 3.222656 -34.378906 Z M 3.222656 0 L 9.941406 0 L 9.941406 -24.851562 L 3.222656 -24.851562 Z M 3.222656 0 "/></g></g></g><g fill="#24c108" fill-opacity="1"><g transform="translate(177.023506, 201.828906)"><g><path d="M 17.351562 -25.40625 C 13.992188 -25.40625 11 -23.976562 9.113281 -21.769531 L 7.824219 -24.851562 L 3.222656 -24.851562 L 3.222656 0 L 9.941406 0 L 9.941406 -13.023438 C 9.941406 -17.027344 12.058594 -19.515625 15.511719 -19.515625 C 18.410156 -19.515625 19.835938 -17.71875 19.835938 -13.945312 L 19.835938 0 L 26.554688 0 L 26.554688 -15.050781 C 26.554688 -21.355469 23.011719 -25.40625 17.351562 -25.40625 Z M 17.351562 -25.40625 "/></g></g></g><g fill="#24c108" fill-opacity="1"><g transform="translate(205.465462, 201.828906)"><g><path d="M 15.371094 -5.984375 C 12.886719 -5.984375 11.507812 -7.363281 11.507812 -9.757812 L 11.507812 -19.421875 L 18.273438 -19.421875 L 18.273438 -24.851562 L 11.414062 -24.851562 L 11.414062 -31.296875 L 10.125 -31.296875 L 0.320312 -20.894531 L 0.320312 -19.421875 L 4.785156 -19.421875 L 4.785156 -8.835938 C 4.785156 -3.359375 8.144531 0 13.625 0 L 18.410156 0 L 18.410156 -5.984375 Z M 15.371094 -5.984375 "/></g></g></g><g fill="#24c108" fill-opacity="1"><g transform="translate(224.19663, 201.828906)"><g><path d="M 16.0625 -32.214844 L 3.683594 -32.214844 L 3.683594 0 L 10.632812 0 L 10.632812 -10.035156 L 16.0625 -10.035156 C 22.550781 -10.035156 27.429688 -14.773438 27.429688 -21.125 C 27.429688 -27.476562 22.503906 -32.214844 16.0625 -32.214844 Z M 15.738281 -16.476562 L 10.632812 -16.476562 L 10.632812 -25.726562 L 15.738281 -25.726562 C 18.5 -25.726562 20.386719 -23.792969 20.386719 -21.125 C 20.386719 -18.457031 18.5 -16.476562 15.738281 -16.476562 Z M 15.738281 -16.476562 "/></g></g></g><g fill="#24c108" fill-opacity="1"><g transform="translate(251.764148, 201.828906)"><g><path d="M 23.472656 -24.851562 L 22.78125 -22.503906 C 20.617188 -24.394531 17.8125 -25.542969 14.589844 -25.542969 C 7.132812 -25.542969 1.566406 -19.929688 1.566406 -12.425781 C 1.566406 -4.925781 7.132812 0.738281 14.589844 0.738281 C 17.765625 0.738281 20.527344 -0.367188 22.644531 -2.253906 L 23.242188 0 L 28.488281 0 L 28.488281 -24.851562 Z M 15.140625 -5.613281 C 11.230469 -5.613281 8.375 -8.558594 8.375 -12.425781 C 8.375 -16.339844 11.230469 -19.238281 15.140625 -19.238281 C 19.054688 -19.238281 21.90625 -16.339844 21.90625 -12.425781 C 21.90625 -8.515625 19.054688 -5.613281 15.140625 -5.613281 Z M 15.140625 -5.613281 "/></g></g></g><g fill="#24c108" fill-opacity="1"><g transform="translate(282.461216, 201.828906)"><g><path d="M 3.222656 -28.167969 L 9.894531 -28.167969 L 9.894531 -34.378906 L 3.222656 -34.378906 Z M 3.222656 0 L 9.941406 0 L 9.941406 -24.851562 L 3.222656 -24.851562 Z M 3.222656 0 "/></g></g></g><g fill="#24c108" fill-opacity="1"><g transform="translate(294.565118, 201.828906)"><g><path d="M 15.925781 -24.992188 C 12.703125 -24.992188 10.492188 -23.976562 8.699219 -21.769531 L 7.5 -24.851562 L 3.222656 -24.851562 L 3.222656 0 L 9.941406 0 L 9.941406 -12.886719 C 9.941406 -16.9375 11.414062 -18.640625 15.1875 -18.640625 L 18.132812 -18.640625 L 18.132812 -24.992188 Z M 15.925781 -24.992188 "/></g></g></g></svg>