<svg xmlns="http://www.w3.org/2000/svg" xmlns:xlink="http://www.w3.org/1999/xlink" width="418" zoomAndPan="magnify" viewBox="0 0 313.5 67.499998" height="90" preserveAspectRatio="xMidYMid meet" version="1.0"><defs><g/><clipPath id="782b09f60c"><path d="M 16.980469 16.917969 L 55.316406 16.917969 L 55.316406 55.257812 L 16.980469 55.257812 Z M 16.980469 16.917969 " clip-rule="nonzero"/></clipPath><clipPath id="88dcd235ba"><path d="M 5 4 L 68 4 L 68 66.894531 L 5 66.894531 Z M 5 4 " clip-rule="nonzero"/></clipPath><clipPath id="54e85ab941"><path d="M 35 63 L 37 63 L 37 66.894531 L 35 66.894531 Z M 35 63 " clip-rule="nonzero"/></clipPath></defs><g clip-path="url(#782b09f60c)"><path fill="#24c108" d="M 36.148438 16.917969 C 35.519531 16.917969 34.894531 16.949219 34.269531 17.011719 C 33.644531 17.074219 33.023438 17.164062 32.410156 17.289062 C 31.792969 17.410156 31.183594 17.5625 30.585938 17.746094 C 29.984375 17.925781 29.394531 18.136719 28.8125 18.378906 C 28.234375 18.617188 27.667969 18.886719 27.113281 19.183594 C 26.558594 19.480469 26.019531 19.800781 25.5 20.148438 C 24.976562 20.5 24.472656 20.871094 23.988281 21.269531 C 23.503906 21.667969 23.039062 22.089844 22.59375 22.535156 C 22.148438 22.976562 21.730469 23.441406 21.332031 23.929688 C 20.933594 24.414062 20.558594 24.917969 20.210938 25.4375 C 19.863281 25.960938 19.539062 26.5 19.242188 27.050781 C 18.945312 27.605469 18.679688 28.171875 18.4375 28.753906 C 18.199219 29.332031 17.988281 29.921875 17.804688 30.523438 C 17.621094 31.125 17.46875 31.734375 17.347656 32.347656 C 17.226562 32.964844 17.132812 33.585938 17.070312 34.210938 C 17.011719 34.835938 16.980469 35.460938 16.980469 36.089844 C 16.980469 36.714844 17.011719 37.34375 17.070312 37.96875 C 17.132812 38.59375 17.226562 39.210938 17.347656 39.828125 C 17.46875 40.445312 17.621094 41.050781 17.804688 41.652344 C 17.988281 42.253906 18.199219 42.84375 18.4375 43.425781 C 18.679688 44.003906 18.945312 44.570312 19.242188 45.125 C 19.539062 45.679688 19.863281 46.214844 20.210938 46.738281 C 20.558594 47.261719 20.933594 47.765625 21.332031 48.25 C 21.730469 48.734375 22.148438 49.199219 22.59375 49.644531 C 23.039062 50.085938 23.503906 50.507812 23.988281 50.90625 C 24.472656 51.304688 24.976562 51.679688 25.5 52.027344 C 26.019531 52.375 26.558594 52.699219 27.113281 52.992188 C 27.667969 53.289062 28.234375 53.558594 28.8125 53.796875 C 29.394531 54.039062 29.984375 54.25 30.585938 54.433594 C 31.183594 54.613281 31.792969 54.765625 32.410156 54.890625 C 33.023438 55.011719 33.644531 55.101562 34.269531 55.164062 C 34.894531 55.226562 35.519531 55.257812 36.148438 55.257812 C 36.777344 55.257812 37.402344 55.226562 38.027344 55.164062 C 38.652344 55.101562 39.273438 55.011719 39.886719 54.890625 C 40.503906 54.765625 41.113281 54.613281 41.714844 54.433594 C 42.3125 54.25 42.902344 54.039062 43.484375 53.796875 C 44.0625 53.558594 44.632812 53.289062 45.183594 52.992188 C 45.738281 52.699219 46.277344 52.375 46.796875 52.027344 C 47.320312 51.679688 47.824219 51.304688 48.308594 50.90625 C 48.792969 50.507812 49.257812 50.085938 49.703125 49.644531 C 50.148438 49.199219 50.566406 48.734375 50.964844 48.25 C 51.363281 47.765625 51.738281 47.261719 52.085938 46.738281 C 52.4375 46.214844 52.757812 45.679688 53.054688 45.125 C 53.351562 44.570312 53.617188 44.003906 53.859375 43.425781 C 54.097656 42.84375 54.308594 42.253906 54.492188 41.652344 C 54.675781 41.050781 54.828125 40.445312 54.949219 39.828125 C 55.070312 39.210938 55.164062 38.59375 55.226562 37.96875 C 55.285156 37.34375 55.316406 36.714844 55.316406 36.089844 C 55.316406 35.460938 55.285156 34.835938 55.226562 34.210938 C 55.164062 33.585938 55.070312 32.964844 54.949219 32.347656 C 54.828125 31.734375 54.675781 31.125 54.492188 30.523438 C 54.308594 29.921875 54.097656 29.332031 53.859375 28.753906 C 53.617188 28.171875 53.351562 27.605469 53.054688 27.050781 C 52.757812 26.5 52.4375 25.960938 52.085938 25.4375 C 51.738281 24.917969 51.363281 24.414062 50.964844 23.929688 C 50.566406 23.441406 50.148438 22.976562 49.703125 22.535156 C 49.257812 22.089844 48.792969 21.667969 48.308594 21.269531 C 47.824219 20.871094 47.320312 20.5 46.796875 20.148438 C 46.277344 19.800781 45.738281 19.480469 45.183594 19.183594 C 44.632812 18.886719 44.0625 18.617188 43.484375 18.378906 C 42.902344 18.136719 42.3125 17.925781 41.714844 17.746094 C 41.113281 17.5625 40.503906 17.410156 39.886719 17.289062 C 39.273438 17.164062 38.652344 17.074219 38.027344 17.011719 C 37.402344 16.949219 36.777344 16.917969 36.148438 16.917969 Z M 38.886719 42.777344 C 38.714844 42.800781 38.546875 42.789062 38.378906 42.742188 C 38.214844 42.691406 38.066406 42.613281 37.933594 42.5 C 37.804688 42.386719 37.703125 42.25 37.628906 42.09375 C 37.554688 41.9375 37.519531 41.773438 37.519531 41.597656 L 37.519531 38.449219 C 37.515625 38.175781 37.601562 37.929688 37.773438 37.714844 C 37.941406 37.5 38.160156 37.363281 38.429688 37.300781 C 38.933594 37.183594 39.402344 36.980469 39.832031 36.6875 C 40.261719 36.394531 40.621094 36.035156 40.914062 35.601562 C 41.207031 35.171875 41.410156 34.703125 41.523438 34.199219 C 41.640625 33.691406 41.65625 33.179688 41.578125 32.667969 C 41.496094 32.152344 41.328125 31.671875 41.0625 31.222656 C 40.800781 30.773438 40.464844 30.390625 40.058594 30.066406 C 39.648438 29.746094 39.195312 29.511719 38.699219 29.359375 C 38.199219 29.210938 37.691406 29.15625 37.175781 29.203125 C 36.65625 29.246094 36.164062 29.382812 35.699219 29.613281 C 35.234375 29.84375 34.824219 30.148438 34.476562 30.535156 C 34.125 30.917969 33.859375 31.355469 33.675781 31.839844 C 33.492188 32.328125 33.402344 32.832031 33.410156 33.351562 L 33.410156 46.359375 C 33.410156 46.628906 33.359375 46.890625 33.253906 47.144531 C 33.148438 47.394531 33 47.617188 32.808594 47.808594 C 32.617188 48.003906 32.394531 48.152344 32.140625 48.253906 C 31.890625 48.359375 31.628906 48.410156 31.355469 48.410156 L 29.988281 48.410156 C 29.714844 48.410156 29.453125 48.359375 29.199219 48.253906 C 28.949219 48.152344 28.726562 48.003906 28.535156 47.808594 C 28.34375 47.617188 28.195312 47.394531 28.089844 47.144531 C 27.984375 46.890625 27.933594 46.628906 27.933594 46.359375 L 27.933594 33.597656 C 27.925781 32.980469 27.976562 32.367188 28.085938 31.757812 C 28.195312 31.152344 28.363281 30.558594 28.585938 29.984375 C 28.808594 29.40625 29.082031 28.855469 29.40625 28.332031 C 29.734375 27.808594 30.109375 27.320312 30.527344 26.867188 C 30.945312 26.414062 31.40625 26.003906 31.902344 25.636719 C 32.398438 25.273438 32.929688 24.957031 33.484375 24.691406 C 34.042969 24.425781 34.621094 24.214844 35.21875 24.058594 C 35.816406 23.902344 36.421875 23.804688 37.039062 23.765625 C 37.632812 23.757812 38.226562 23.804688 38.8125 23.90625 C 39.398438 24.011719 39.96875 24.167969 40.527344 24.375 C 41.085938 24.585938 41.617188 24.84375 42.128906 25.152344 C 42.636719 25.460938 43.113281 25.8125 43.554688 26.210938 C 44 26.609375 44.402344 27.042969 44.765625 27.515625 C 45.128906 27.988281 45.445312 28.488281 45.710938 29.019531 C 45.980469 29.550781 46.199219 30.101562 46.363281 30.675781 C 46.53125 31.246094 46.644531 31.828125 46.699219 32.421875 C 46.757812 33.015625 46.761719 33.605469 46.707031 34.199219 C 46.65625 34.792969 46.546875 35.375 46.386719 35.949219 C 46.222656 36.523438 46.011719 37.074219 45.746094 37.609375 C 45.480469 38.140625 45.171875 38.648438 44.8125 39.121094 C 44.453125 39.597656 44.054688 40.035156 43.613281 40.4375 C 43.171875 40.835938 42.699219 41.195312 42.191406 41.507812 C 41.6875 41.820312 41.15625 42.082031 40.597656 42.296875 C 40.042969 42.507812 39.472656 42.667969 38.886719 42.777344 Z M 38.886719 42.777344 " fill-opacity="1" fill-rule="nonzero"/></g><path fill="#24c108" d="M 51.316406 48.15625 L 52.167969 61.734375 C 52.199219 62.25 52.671875 62.621094 53.171875 62.527344 L 66.425781 60.058594 C 67.148438 59.921875 67.371094 58.992188 66.792969 58.535156 L 52.6875 47.421875 C 52.109375 46.96875 51.269531 47.414062 51.316406 48.15625 Z M 51.316406 48.15625 " fill-opacity="1" fill-rule="nonzero"/><g clip-path="url(#88dcd235ba)"><path fill="#24c108" d="M 15.738281 59 C 21.378906 64.058594 28.242188 66.613281 35.109375 66.867188 L 35.15625 63.261719 C 29.777344 63.046875 24.40625 61.242188 19.792969 57.710938 C 7.320312 48.171875 5.253906 29.910156 15.617188 17.746094 C 24.496094 7.328125 39.992188 5.171875 51.332031 12.777344 C 64.566406 21.65625 67.472656 39.800781 58.019531 52.394531 L 60.859375 54.566406 C 71.148438 40.855469 68.484375 21.320312 54.902344 10.929688 C 40.8125 0.148438 20.503906 3.453125 10.554688 18.542969 C 2.125 31.339844 4.355469 48.796875 15.738281 59 Z M 15.738281 59 " fill-opacity="1" fill-rule="nonzero"/></g><g clip-path="url(#54e85ab941)"><path fill="#24c108" d="M 36.917969 65.089844 C 36.933594 64.09375 36.148438 63.277344 35.164062 63.261719 L 35.109375 66.867188 C 36.09375 66.882812 36.902344 66.085938 36.917969 65.089844 Z M 36.917969 65.089844 " fill-opacity="1" fill-rule="nonzero"/></g><g fill="#24c108" fill-opacity="1"><g transform="translate(78.064477, 47.801506)"><g><path d="M 15.96875 -32.03125 L 3.660156 -32.03125 L 3.660156 0 L 10.570312 0 L 10.570312 -9.976562 L 15.96875 -9.976562 C 22.421875 -9.976562 27.273438 -14.6875 27.273438 -21.003906 C 27.273438 -27.316406 22.375 -32.03125 15.96875 -32.03125 Z M 15.648438 -16.382812 L 10.570312 -16.382812 L 10.570312 -25.578125 L 15.648438 -25.578125 C 18.394531 -25.578125 20.269531 -23.65625 20.269531 -21.003906 C 20.269531 -18.347656 18.394531 -16.382812 15.648438 -16.382812 Z M 15.648438 -16.382812 "/></g></g></g><g fill="#24c108" fill-opacity="1"><g transform="translate(105.472942, 47.801506)"><g><path d="M 14.917969 0.730469 C 22.558594 0.730469 28.277344 -4.894531 28.277344 -12.355469 C 28.277344 -19.8125 22.558594 -25.394531 14.917969 -25.394531 C 7.277344 -25.394531 1.554688 -19.8125 1.554688 -12.355469 C 1.554688 -4.894531 7.277344 0.730469 14.917969 0.730469 Z M 14.917969 -5.582031 C 11.074219 -5.582031 8.328125 -8.328125 8.328125 -12.355469 C 8.328125 -16.335938 11.074219 -19.128906 14.917969 -19.128906 C 18.761719 -19.128906 21.507812 -16.335938 21.507812 -12.355469 C 21.507812 -8.328125 18.761719 -5.582031 14.917969 -5.582031 Z M 14.917969 -5.582031 "/></g></g></g><g fill="#24c108" fill-opacity="1"><g transform="translate(134.299883, 47.801506)"><g><path d="M 3.203125 -28.003906 L 9.839844 -28.003906 L 9.839844 -34.179688 L 3.203125 -34.179688 Z M 3.203125 0 L 9.882812 0 L 9.882812 -24.710938 L 3.203125 -24.710938 Z M 3.203125 0 "/></g></g></g><g fill="#24c108" fill-opacity="1"><g transform="translate(146.333953, 47.801506)"><g><path d="M 17.25 -25.257812 C 13.910156 -25.257812 10.9375 -23.839844 9.058594 -21.644531 L 7.777344 -24.710938 L 3.203125 -24.710938 L 3.203125 0 L 9.882812 0 L 9.882812 -12.949219 C 9.882812 -16.929688 11.988281 -19.402344 15.421875 -19.402344 C 18.304688 -19.402344 19.722656 -17.617188 19.722656 -13.863281 L 19.722656 0 L 26.402344 0 L 26.402344 -14.964844 C 26.402344 -21.230469 22.878906 -25.257812 17.25 -25.257812 Z M 17.25 -25.257812 "/></g></g></g><g fill="#24c108" fill-opacity="1"><g transform="translate(174.611804, 47.801506)"><g><path d="M 15.285156 -5.949219 C 12.8125 -5.949219 11.441406 -7.320312 11.441406 -9.699219 L 11.441406 -19.308594 L 18.167969 -19.308594 L 18.167969 -24.710938 L 11.347656 -24.710938 L 11.347656 -31.117188 L 10.066406 -31.117188 L 0.320312 -20.773438 L 0.320312 -19.308594 L 4.757812 -19.308594 L 4.757812 -8.785156 C 4.757812 -3.339844 8.097656 0 13.542969 0 L 18.304688 0 L 18.304688 -5.949219 Z M 15.285156 -5.949219 "/></g></g></g><g fill="#24c108" fill-opacity="1"><g transform="translate(193.234896, 47.801506)"><g><path d="M 15.96875 -32.03125 L 3.660156 -32.03125 L 3.660156 0 L 10.570312 0 L 10.570312 -9.976562 L 15.96875 -9.976562 C 22.421875 -9.976562 27.273438 -14.6875 27.273438 -21.003906 C 27.273438 -27.316406 22.375 -32.03125 15.96875 -32.03125 Z M 15.648438 -16.382812 L 10.570312 -16.382812 L 10.570312 -25.578125 L 15.648438 -25.578125 C 18.394531 -25.578125 20.269531 -23.65625 20.269531 -21.003906 C 20.269531 -18.347656 18.394531 -16.382812 15.648438 -16.382812 Z M 15.648438 -16.382812 "/></g></g></g><g fill="#24c108" fill-opacity="1"><g transform="translate(220.643356, 47.801506)"><g><path d="M 23.335938 -24.710938 L 22.652344 -22.375 C 20.5 -24.25 17.707031 -25.394531 14.503906 -25.394531 C 7.09375 -25.394531 1.554688 -19.8125 1.554688 -12.355469 C 1.554688 -4.894531 7.09375 0.730469 14.503906 0.730469 C 17.664062 0.730469 20.410156 -0.367188 22.511719 -2.242188 L 23.109375 0 L 28.324219 0 L 28.324219 -24.710938 Z M 15.054688 -5.582031 C 11.164062 -5.582031 8.328125 -8.511719 8.328125 -12.355469 C 8.328125 -16.246094 11.164062 -19.128906 15.054688 -19.128906 C 18.945312 -19.128906 21.78125 -16.246094 21.78125 -12.355469 C 21.78125 -8.464844 18.945312 -5.582031 15.054688 -5.582031 Z M 15.054688 -5.582031 "/></g></g></g><g fill="#24c108" fill-opacity="1"><g transform="translate(251.163308, 47.801506)"><g><path d="M 3.203125 -28.003906 L 9.839844 -28.003906 L 9.839844 -34.179688 L 3.203125 -34.179688 Z M 3.203125 0 L 9.882812 0 L 9.882812 -24.710938 L 3.203125 -24.710938 Z M 3.203125 0 "/></g></g></g><g fill="#24c108" fill-opacity="1"><g transform="translate(263.197372, 47.801506)"><g><path d="M 15.832031 -24.847656 C 12.628906 -24.847656 10.433594 -23.839844 8.648438 -21.644531 L 7.457031 -24.710938 L 3.203125 -24.710938 L 3.203125 0 L 9.882812 0 L 9.882812 -12.8125 C 9.882812 -16.839844 11.347656 -18.53125 15.101562 -18.53125 L 18.027344 -18.53125 L 18.027344 -24.847656 Z M 15.832031 -24.847656 "/></g></g></g></svg>